<?xml version="1.0"?>
<svg xmlns="http://www.w3.org/2000/svg" id="Lager_1" viewBox="0 0 254.52 106.2">
  <defs>
    <style>.cls-1,.cls-2{fill:#e30613;}.cls-2{fill-rule:evenodd;}.cls-3{fill:#1d1d1b;}</style>
  </defs>
  <title>Maxi_logo</title>
  <polygon class="cls-1" points="231.52 15.8 254.52 15.8 254.52 78.81 231.52 78.81 231.52 15.8 231.52 15.8"/>
  <polygon class="cls-1" points="0 0 34.01 0 43.83 42.72 53.91 0 87.01 0 87.01 79 64.01 79 63.95 29.85 53.01 79 35.01 79 22.9 29.35 23 79 0 79 0 0 0 0"/>
  <path class="cls-2" d="M112.21,15.8h32l21,63,17-32-17-31h23c3.24,5.42,2.74,4.6,6,9.85,0,0-1.5,3,6-9.85h22l-17,31,17.6,32H199.7c.5,1.42,0,0-5.09-10-2.66,4.17-1.55,2.8-5.91,10h-47s.5,1.17-3-9l-21.49,0c-3,9-2.8,7.6-3,9H90.58l21.63-63Zm22.1,41.8H121.2s-1.37,5.12,7.11-18c0,0,7.14,21.37,6,18Z"/>
  <rect class="cls-1" y="84.71" width="4.9" height="20.92"/>
  <path class="cls-1" d="M30.56,95.33l2.37,4.5h-2l-2,3.68h6l1.23,2.28H42L30.64,84.71,22.72,97.87c-3.93,6-9.27,2.22-10.14-1-1.22-4.54,3.52-9.24,8.17-6.54l2.7-4.49c-7.27-3.93-16.34,1.47-16.34,9A11,11,0,0,0,18.22,106.2c6.37,0,9.64-6.45,9.64-6.45Z"/>
  <path class="cls-3" d="M52.18,98.73c0,2.77,2.11,3.85,4.52,3.85,1.57,0,4-.47,4-2.6s-3.06-2.62-6.06-3.44-6.09-2-6.09-5.93c0-4.25,3.94-6.3,7.63-6.3,4.26,0,8.18,1.9,8.18,6.71H60c-.15-2.5-1.89-3.15-4-3.15-1.43,0-3.09.61-3.09,2.36s1,1.82,6.1,3.16c1.48.38,6.06,1.34,6.06,6.07,0,3.82-2.95,6.68-8.49,6.68-4.52,0-8.75-2.28-8.7-7.41Z"/>
  <path class="cls-3" d="M70.34,88.66H64.22V84.81H81v3.85H74.83v17H70.34Z"/>
  <path class="cls-3" d="M89.29,84.31c6.32,0,10,4.81,10,11,0,6-3.72,10.83-10,10.83s-10-4.82-10-10.83C79.26,89.12,83,84.31,89.29,84.31Zm0,18c4,0,5.55-3.51,5.55-7,0-3.64-1.51-7.15-5.55-7.15s-5.54,3.51-5.54,7.15C83.75,98.78,85.26,102.29,89.29,102.29Z"/>
  <path class="cls-3" d="M101,84.81h11a5.65,5.65,0,0,1,6,5.74c0,2.46-1,4.3-3.23,5.23v.06c2.21.58,2.83,2.77,3,4.87.08,1.32,0,3.77.85,4.93h-4.49c-.54-1.31-.48-3.33-.71-5-.31-2.18-1.14-3.15-3.4-3.15h-4.49v8.14H101Zm4.49,9.43h4.92c2,0,3.09-.88,3.09-3s-1.09-2.89-3.09-2.89h-4.92Z"/>
  <path class="cls-3" d="M120,84.81h5.86l4.44,14.32h0l4.19-14.32h5.88v20.83h-3.91V90.88h-.05l-4.65,14.76h-3.21L124,91h0v14.62H120Z"/>
  <path class="cls-3" d="M148.11,84.81h4.6l7.64,20.83h-4.66L154.14,101h-7.63l-1.6,4.63h-4.55Zm-.43,12.78H153l-2.57-7.65h-.06Z"/>
  <path class="cls-3" d="M160.69,84.81h11a5.65,5.65,0,0,1,6,5.74c0,2.46-1,4.3-3.23,5.23v.06c2.2.58,2.84,2.77,3,4.87.08,1.32.05,3.77.85,4.93h-4.48c-.55-1.31-.49-3.33-.72-5-.32-2.18-1.14-3.15-3.4-3.15h-4.49v8.14h-4.49Zm4.49,9.43h4.92c2,0,3.08-.88,3.08-3s-1.08-2.89-3.08-2.89h-4.92Z"/>
  <path class="cls-3" d="M179.19,84.81h4.49v8.64l8-8.64h5.6l-8,8.23,8.74,12.6H192.4l-6.15-9.36-2.57,2.65v6.71h-4.49Z"/>
  <path class="cls-3" d="M198.37,84.81h4.37l8.34,14h.06v-14h4.12v20.83h-4.4l-8.32-14h-.06v14h-4.11Z"/>
  <path class="cls-3" d="M223.9,84.81h4.6l7.64,20.83h-4.66L229.94,101H222.3l-1.6,4.63h-4.55Zm-.43,12.78h5.29l-2.57-7.65h-.06Z"/>
  <path class="cls-3" d="M236.44,84.81h8.63c5.18,0,9.08,3.38,9.08,10.3,0,6-3,10.53-9.08,10.53h-8.63Zm4.4,17h3.92c2.55,0,5-1.63,5-6.24,0-4.21-1.4-6.89-5.77-6.89h-3.14Z"/>
</svg>
