<?xml version="1.0" encoding="UTF-8"?>
<svg xmlns="http://www.w3.org/2000/svg" id="Calque_2" viewBox="0 0 340.16 170.08">
  <defs>
    <style>.cls-1{fill:#da291c;}.cls-2{fill:#3d3935;}</style>
  </defs>
  <path class="cls-1" d="M113.08,72.8c-.05-.32-.1-.67-.14-1.02h0s12.76-12.73,12.76-12.73l9.86-9.84s3.7-3.91,3.38-9.14c-1.54-9.45-2.77-16.94-2.77-16.94l-24.76,10.09-.11.05.46,1.83s6.3-2.42,8.41-.1c.26.3.51.49.88,1.55.57,1.88,1.44,5.75,3.02,14.25.3,1.86-.41,3.09-.79,3.6-.05.07-.09.11-.09.11l-11.12,11.24c-.44-2.84-.31-1.99-.02.01h0c-2.5-16.23-6.84-42.59-6.84-42.59l-24.87,10.14.45,1.84s6.3-2.43,8.4-.1c.26.3.51.48.88,1.55.57,1.88,1.45,5.74,3.02,14.26.39,2.49-1.02,3.86-1.02,3.86l-10.99,11.11c-2.5-16.25-6.82-42.47-6.82-42.47l-24.88,10.14.46,1.83s6.3-2.42,8.41-.09c.98,1.1,1.65.62,9.87,49.76,0,0,1.24,6.68-5.72,12.61l1.91,2.29s19.86-12.99,17.86-26.93c-.05-.36-.11-.74-.17-1.14l12.69-12.63c1.16,6.52,2.59,14.87,4.38,25.6,0,0,1.24,6.68-5.73,12.6l1.91,2.29s19.86-12.99,17.86-26.94"/>
  <path class="cls-1" d="M201.78,56.45c-.11.5-.24,1.03-.37,1.54-.42,1.74-.83,3.34-.83,3.34h7.02s.45-1.75.93-3.61c.55-2.14,1.15-4.43,1.15-4.44.91-3.68-1.47-9.84-7.3-8.81-2.11.37-4.03,1.41-5.89,2.5-2.71,1.59-5.23,3.63-7.63,5.73.04,0-4.28,14.54-4.28,14.54l-9.72.02c2.07-7.84,3.49-8.69-.12-13.03l-5.41,2.58c.73,1.72.46,2.8.19,4.18-.65,2.14-1.84,6.31-1.84,6.31h-3.8l-1.15,3.57h3.93s-5.96,24.36-6.02,24.36c.12,1.13,2.67,4.66,5.76,4.7-.05,0,8.92-5.49,8.87-5.53l-1.07-1.87c-5.24,3.41-5.83,1.03-5.79-.09,1.86-7.16,5.36-21.57,5.36-21.57h8.54s1.51-.17,1.14,1.11l-6.67,27.22h7.3l6.98-28.33s4.89-.02,4.87,0c1.34.18,2.29.65,1.86,2.3,0,0-5.4,21.9-5.45,22.05.12,1.13,2.67,4.66,5.76,4.7h0s8.87-5.53,8.87-5.53l-1.08-1.85c-2.31,1.49-3.72,1.86-4.56,1.72-.02,0-.05,0-.07-.02-.04,0-.07-.01-.1-.03-.03,0-.07-.02-.1-.03-.02,0-.03,0-.04,0-.79-.32-.93-1.18-.91-1.74,1.86-7.16,6.25-25.2,6.25-25.2h-14.46s3.59-13.65,3.59-13.65c.82-2.07,3.41-3.9,5.4-3.59,2.17.34,1.67,3.15,1,6.02-.04.14-.07.29-.1.42"/>
  <path class="cls-1" d="M135.38,93.06s0,.01,0,.01h0"/>
  <polyline class="cls-1" points="162.22 73.99 162.22 73.99 162.22 73.99 162.22 73.99"/>
  <path class="cls-1" d="M162.22,73.99h0s0,0,0,0c-.16-.36-.33-.71-.52-1.04-1.65-3.4-3.74-4.96-5.87-5.57-.11-.04-.22-.05-.32-.09-.49-.12-1.05-.18-1.67-.18-4.13.03-10.49,2.78-12.1,6.93-.84,2.16-2.02,5.99-1.73,8.16.04.25.1.5.18.71.27.67.73,1.19,1.32,1.63,1.53,1.19,4.02,1.69,6.26,2.41.03.01.06.02.1.04.2.06.4.13.59.2.91.37,1.63.86,1.79,1.71.25,1.36-.49,3.86-1.43,5.42-2.28,3.76-5.22,1.48-7.96-4.5-.01,0-.03,0-.07.02h0c-.2.11-5.23,3.1-5.41,3.2h0s0,.01,0,.01c.16.37.34.7.52,1.03,1.65,3.41,3.74,4.97,5.89,5.59.1.02.21.06.32.07.49.12,1.04.19,1.66.18,4.13-.02,10.49-2.78,12.11-6.94.83-2.16,2.02-5.98,1.72-8.15-.03-.27-.1-.51-.18-.72-.26-.66-.73-1.19-1.31-1.63-1.54-1.19-4.03-1.69-6.27-2.41-.03,0-.07-.03-.1-.03-.2-.06-.39-.13-.59-.2-.91-.38-1.64-.87-1.79-1.72-.24-1.36.49-3.86,1.44-5.42,2.28-3.76,5.21-1.48,7.97,4.5,0,0,.02,0,.05-.02h0c.2-.1,5.23-3.09,5.41-3.21"/>
  <path class="cls-1" d="M290.66,44.93c-5.17-.12-10.88.36-14.7,4.41-2.17,4.12-6.47,19.53-6.47,19.53-1.31-1.87-11.78-4.25-17.8,3.79-.02.02-.03.06-.05.09-.78,1.57-5.2,19.14-5.26,19.17-1.45,1.04-5.43,2.53-6.02,2.48-.88-.4-1.35-1.08-1.22-2.07,3.93-13.4,6.63-27.1,11.04-40.32,1.65-3.35,5.3-4.82,8.77-5.23l-.13-1.82c-5.16-.12-10.87.36-14.7,4.41-2.86,4.71-12.39,44.03-12.39,44.03-.47,3.27,2.99,6.81,5.34,6.56,3.41-1.47,6.48-3.52,9.66-5.41,1.06,1.42,2.75,3.29,4.16,4.29,4.11,2.95,12.2-2.31,12.25-2.24,1.14,1.78,2.91,3.69,5.98,3.13,2.33-.76,11.44-6.72,11.44-6.72l-1.22-1.99s-4.82,3.07-7.59,3.36c0,0-1.65-.11-1.16-2.02-.05.05,11.4-40.3,11.4-40.35,1.65-3.35,5.29-4.82,8.77-5.23M267.99,75.09l-4.02,14.54c-.21.87-.66,1.22-.98,1.55-4.82,3.9-10.49,5.47-8.47-2.85,0,0,3.46-13.51,4.05-14.44,3.08-4.01,9.85-4.52,9.42,1.21"/>
  <path class="cls-1" d="M232.51,68.29c-2.38-2.34-7.56-1.01-10.85-.19-3.49,1.1-7.36,2.31-9.01,6.3-1.32,4.62-3.55,13.16-4.78,18.77-.05,1.52,4.88,6.46,8.52,6.75,1.09.41,12.38-6.91,12.38-6.91l-1.21-2.03s-4.59,2.93-7.37,3.28c-.13.02-.27,0-.27,0-1.62-.24-3.63-1.47-4.2-2.89-.21-.45,1.39-6.19,1.39-6.19,0,0,10.86.51,14.1-3.6,2.35-3.83,3.98-10.28,1.29-13.3M226.49,77.45c-1.58,4.56-7.22,3.96-8.12,3.82-.16-.07-.1-.33-.1-.33l1.43-5.47c.88-3.12,4.69-4.95,6.28-4.52,2.62,1.04.51,6.5.51,6.5"/>
  <path class="cls-1" d="M137.34,68.29c-2.38-2.34-7.56-1.01-10.85-.19-3.49,1.1-7.35,2.31-9,6.3-1.33,4.62-3.55,13.16-4.77,18.77-.06,1.52,4.87,6.46,8.51,6.75,1.1.41,12.38-6.91,12.38-6.91l-1.2-2.03s-4.59,2.93-7.38,3.28c-.13.02-.28,0-.28,0-1.61-.24-3.62-1.47-4.19-2.89-.22-.45,1.38-6.19,1.38-6.19,0,0,10.87.51,14.1-3.6,2.35-3.83,3.99-10.28,1.29-13.3M131.32,77.45c-1.58,4.56-7.22,3.96-8.12,3.82-.15-.07-.1-.33-.1-.33l1.43-5.47c.89-3.12,4.69-4.95,6.28-4.52,2.63,1.04.51,6.5.51,6.5"/>
  <path class="cls-2" d="M34.83,113.39h3.14l4.65,12.48h.08l4.61-12.48h3.06v28.34h-2.42v-23.13h-.08l-4.37,11.69h-1.83l-4.33-11.65h-.08v23.09h-2.42v-28.34Z"/>
  <path class="cls-2" d="M59.84,113.31h3.54l5.72,28.42h-2.7l-1.75-8.98h-6.36l-1.75,8.98h-2.5l5.8-28.42ZM64.21,130.52l-2.66-14.11h-.12l-2.7,14.11h5.49Z"/>
  <path class="cls-2" d="M72.76,113.39h2.7v26h7.95v2.34h-10.65v-28.34Z"/>
  <path class="cls-2" d="M86.87,113.39h2.7v26h7.95v2.34h-10.65v-28.34Z"/>
  <path class="cls-2" d="M106.15,135.61v-16.18c0-4.21,2.86-6.48,6.68-6.48s6.52,1.95,6.52,6.12v16.34c0,4.49-2.82,6.68-6.68,6.68s-6.52-2.15-6.52-6.48ZM116.65,135.61v-16.5c0-2.27-1.43-3.82-3.97-3.82s-3.82,1.79-3.82,3.94v16.42c0,2.19,1.27,4.05,3.9,4.05s3.89-1.95,3.89-4.09Z"/>
  <path class="cls-2" d="M123.84,113.39h10.57v2.34h-7.87v10.02h6.28v2.35h-6.28v13.63h-2.7v-28.34Z"/>
  <path class="cls-2" d="M142.69,135.29l2.54-.08c.28,2.82,1.35,4.69,3.66,4.69,2.54,0,3.34-2.23,3.34-4.25,0-1.91-.88-3.86-2.42-5.64l-3.5-4.09c-1.87-2.19-3.14-4.37-3.14-6.84,0-3.46,1.91-6.12,5.76-6.12,3.06,0,5.33,1.67,5.61,6.28l-2.46.08c-.32-2.9-1.35-4.17-3.26-4.17s-3.18,1.23-3.18,3.74c0,1.83,1.27,3.54,2.78,5.29l3.02,3.54c2.15,2.46,3.34,4.81,3.34,7.71,0,3.94-2.11,6.68-5.88,6.68s-5.88-2.38-6.2-6.8Z"/>
  <path class="cls-2" d="M158.27,136.01v-16.77c0-3.78,2.54-6.28,6.6-6.28s6.12,2.42,6.12,5.53v3.22h-2.31v-2.74c0-2.19-1.31-3.7-3.86-3.7-2.82,0-3.86,1.87-3.86,4.09v16.26c0,2.74,1.51,4.09,3.93,4.09s3.78-1.59,3.78-3.62v-2.82h2.31v2.98c0,3.46-2.31,5.84-6.08,5.84-4.05,0-6.64-2.19-6.64-6.08Z"/>
  <path class="cls-2" d="M179.18,113.31h3.54l5.72,28.42h-2.7l-1.75-8.98h-6.36l-1.75,8.98h-2.5l5.8-28.42ZM183.55,130.52l-2.66-14.11h-.12l-2.7,14.11h5.49Z"/>
  <path class="cls-2" d="M192.1,113.39h2.98l7.55,21.23h.08v-21.23h2.39v28.34h-2.54l-7.99-22.94h-.08v22.94h-2.38v-28.34Z"/>
  <path class="cls-2" d="M210.03,113.39h6.36c3.54,0,6.28,1.83,6.28,5.72v16.38c0,4.21-2.74,6.24-6.4,6.24h-6.24v-28.34ZM216.12,139.39c2.9,0,3.86-2.15,3.86-3.9v-16.06c0-2.07-1.15-3.74-3.82-3.74h-3.42v23.69h3.38Z"/>
  <path class="cls-2" d="M227.17,113.39h2.7v28.34h-2.7v-28.34Z"/>
  <path class="cls-2" d="M234.8,113.39h2.98l7.55,21.23h.08v-21.23h2.39v28.34h-2.54l-7.99-22.94h-.08v22.94h-2.38v-28.34Z"/>
  <path class="cls-2" d="M257.26,113.31h3.54l5.72,28.42h-2.7l-1.75-8.98h-6.36l-1.75,8.98h-2.5l5.8-28.42ZM261.63,130.52l-2.66-14.11h-.12l-2.7,14.11h5.49Z"/>
  <path class="cls-2" d="M267,113.39h2.7l4.13,23.01h.08l4.21-23.01h2.46l-5.37,28.58h-2.78l-5.45-28.58Z"/>
  <path class="cls-2" d="M283.9,113.39h2.7v28.34h-2.7v-28.34Z"/>
  <path class="cls-2" d="M296.06,113.31h3.54l5.72,28.42h-2.7l-1.75-8.98h-6.36l-1.75,8.98h-2.5l5.8-28.42ZM300.44,130.52l-2.66-14.11h-.12l-2.7,14.11h5.49Z"/>
</svg>
