<svg xmlns="http://www.w3.org/2000/svg" viewBox="0 160 1573 320"><path d="M 45.76 404.75 L 45.50 467.50 L 24.32 467.77 C12.67,467.92 2.92,467.69 2.66,467.26 C2.39,466.82 1.87,407.08 1.50,334.49 L 0.82 202.50 L 3.16 198.03 C6.76,191.14 12.73,188.51 24.44,188.64 C30.45,188.71 35.35,189.38 39.00,190.62 L 44.50 192.50 L 45.50 303.50 L 190.50 303.50 L 190.50 252.50 C190.50,206.22 190.66,201.21 192.21,198.37 C194.62,193.97 199.40,190.22 203.78,189.29 C210.08,187.95 222.10,188.68 228.00,190.76 L 233.50 192.69 L 234.11 264.59 C234.44,304.14 234.78,363.69 234.86,396.92 C234.94,430.15 235.28,457.05 235.62,456.71 C235.97,456.36 240.00,446.16 244.58,434.03 C260.27,392.48 292.84,311.52 311.98,266.50 C340.28,199.95 344.19,192.98 356.79,186.78 C363.16,183.65 363.98,183.50 374.98,183.50 C385.55,183.50 386.97,183.73 392.16,186.28 C400.21,190.23 403.97,194.98 412.37,211.74 C432.54,252.02 473.67,350.19 505.42,433.83 C509.03,443.37 512.48,451.92 513.06,452.83 C513.82,454.02 513.96,418.55 513.55,330.75 C513.51,321.94 513.47,313.73 513.43,306.09 C512.97,211.81 512.93,203.62 516.95,198.83 C517.65,197.99 518.49,197.25 519.47,196.17 C524.70,190.38 530.33,188.48 542.03,188.57 C550.66,188.63 552.25,188.96 558.86,192.00 C563.70,194.24 567.43,196.81 569.95,199.68 C578.30,209.16 615.80,263.42 654.58,322.11 C678.42,358.20 686.87,371.61 696.57,388.72 C700.38,395.44 703.91,400.96 704.41,400.97 C704.97,400.99 705.07,362.17 704.67,303.25 C704.23,238.32 704.35,204.28 705.02,201.87 C706.39,196.92 709.39,193.36 714.34,190.77 C719.90,187.86 734.95,187.81 742.50,190.67 L 747.50 192.56 L 748.11 264.03 C748.44,303.34 748.78,365.31 748.86,401.75 L 749.00 468.00 L 703.18 468.00 L 686.73 442.75 C677.68,428.86 663.62,407.15 655.48,394.50 C634.62,362.09 602.73,313.99 586.77,290.88 C579.32,280.08 569.76,265.80 565.54,259.13 C561.31,252.46 557.61,247.00 557.30,247.00 C557.00,247.00 556.92,296.61 557.12,357.25 L 557.50 467.50 L 514.27 467.76 L 471.04 468.02 L 469.43 464.26 C468.55,462.19 465.67,454.65 463.03,447.50 C452.17,418.02 443.66,396.46 442.61,395.77 C442.00,395.36 410.38,395.02 372.33,395.02 L 303.17 395.00 L 298.40 407.25 C295.78,413.99 289.72,430.30 284.94,443.50 L 276.25 467.50 L 191.50 467.50 L 191.24 404.75 L 190.98 342.00 L 46.02 342.00 ZM 1573.00 0.00 L 1573.00 467.50 L 1481.31 467.76 C1430.88,467.90 1389.29,467.68 1388.89,467.26 C1388.49,466.84 1387.84,408.23 1387.45,337.00 C1386.92,239.43 1387.04,206.45 1387.92,203.24 C1389.48,197.52 1394.08,192.52 1399.80,190.31 C1404.20,188.62 1409.56,188.50 1483.00,188.50 C1560.41,188.50 1561.55,188.53 1565.00,190.56 C1566.92,191.69 1569.50,194.39 1570.73,196.56 L 1572.97 200.50 L 1573.00 0.00 ZM 907.30 358.75 L 907.50 467.50 L 886.41 467.77 L 865.33 468.04 L 864.67 407.27 C864.30,373.85 864.00,314.76 864.00,275.96 L 864.00 205.41 L 867.25 199.96 C869.79,195.70 871.66,193.91 875.77,191.83 C891.03,184.09 913.18,189.21 923.23,202.80 C945.21,232.50 1014.91,335.73 1042.01,378.72 C1048.33,388.74 1053.95,396.81 1054.50,396.64 C1055.16,396.44 1055.39,363.44 1055.17,299.42 L 1054.84 202.50 L 1057.17 198.00 C1060.57,191.44 1066.81,188.52 1077.50,188.52 C1082.45,188.52 1087.83,189.22 1091.62,190.38 L 1097.75 192.24 L 1098.35 238.37 C1098.68,263.74 1099.08,325.67 1099.23,376.00 L 1099.50 467.50 L 1053.53 467.50 L 1049.24 461.00 C1046.88,457.42 1034.75,438.75 1022.28,419.50 C960.88,324.66 910.50,250.00 907.89,250.00 C907.45,250.00 907.19,298.94 907.30,358.75 ZM 1322.00 473.03 C1306.92,474.46 1261.01,475.05 1251.00,473.94 C1200.61,468.33 1163.16,448.11 1139.98,413.97 C1134.00,405.16 1125.54,387.03 1122.52,376.53 C1113.59,345.51 1114.05,304.84 1123.65,276.00 C1139.42,228.62 1177.95,195.34 1229.00,184.98 C1250.59,180.60 1283.20,180.59 1304.66,184.95 C1331.43,190.39 1351.98,201.20 1358.00,212.99 C1361.10,219.07 1360.72,227.21 1357.04,233.63 C1354.40,238.23 1345.69,246.98 1343.73,246.99 C1343.31,247.00 1339.71,244.35 1335.73,241.11 C1324.50,231.96 1314.98,227.21 1298.50,222.50 C1276.86,216.31 1257.17,216.01 1235.29,221.54 C1201.24,230.14 1175.77,256.08 1166.51,291.60 C1158.28,323.20 1161.73,360.99 1175.14,386.00 C1190.06,413.80 1214.75,429.68 1253.00,436.08 C1262.40,437.65 1299.57,437.41 1310.00,435.72 L 1317.50 434.50 L 1317.80 400.50 C1317.97,381.80 1317.83,363.35 1317.49,359.50 L 1316.87 352.50 L 1290.66 352.50 C1264.50,352.50 1264.43,352.49 1259.47,349.94 C1252.04,346.12 1249.84,341.71 1250.25,331.50 C1250.47,325.96 1251.24,322.02 1252.75,318.70 L 1254.93 313.90 L 1300.21 314.20 L 1345.50 314.50 L 1350.00 317.00 C1353.35,318.86 1355.17,320.83 1357.13,324.68 L 1359.75 329.85 L 1360.50 398.51 C1360.92,437.33 1360.86,467.52 1360.37,467.98 C1359.50,468.81 1341.54,471.17 1322.00,473.03 ZM 1572.00 440.01 C1572.00,445.50 1572.22,450.00 1572.50,450.00 C1572.78,450.00 1572.98,397.24 1572.95,332.75 L 1572.91 215.50 L 1570.64 221.00 L 1568.38 226.50 L 1499.68 226.76 L 1430.98 227.01 L 1431.50 305.50 L 1494.68 306.00 C1556.53,306.49 1557.91,306.54 1560.62,308.56 C1566.51,312.97 1567.50,315.37 1567.50,325.32 C1567.50,332.84 1567.07,335.45 1565.13,339.75 L 1562.75 345.00 L 1431.98 345.00 L 1432.50 429.50 L 1572.00 430.01 ZM 828.48 454.25 L 828.50 467.50 L 807.73 467.77 C791.61,467.98 786.86,467.76 786.56,466.77 C786.34,466.07 785.89,423.20 785.55,371.50 L 784.94 277.50 L 787.22 273.00 C790.67,266.20 795.75,264.00 808.03,264.00 C813.77,264.00 819.73,264.62 822.82,265.54 L 828.00 267.08 L 828.23 354.04 C828.36,401.87 828.47,446.96 828.48,454.25 ZM 318.00 357.51 C318.00,357.78 342.75,358.00 373.00,358.00 C403.25,358.00 428.00,357.64 428.00,357.20 C428.00,356.05 407.14,304.03 394.04,272.50 C381.71,242.85 374.08,226.00 372.99,226.00 C372.11,226.00 367.78,235.47 356.51,262.00 C341.08,298.34 318.00,355.57 318.00,357.51 ZM 816.00 216.92 C804.11,222.30 789.95,217.46 782.50,205.48 C779.85,201.21 779.50,199.78 779.52,193.08 C779.55,184.23 781.66,179.26 787.62,174.03 C792.83,169.45 797.45,167.76 805.00,167.65 C813.15,167.54 818.15,169.24 823.29,173.87 C837.40,186.59 833.62,208.96 816.00,216.92 Z" fill="rgb(0,0,0)"/></svg>
