<svg xmlns="http://www.w3.org/2000/svg" id="Calque_2" viewBox="0 0 241.4 119"><defs><style>.st0{fill:#332b2b}.st1{fill:#e1251b}</style></defs><g><path d="M63.7 49.7c0-.3-.1-.7-.1-1S76.4 36 76.4 36l9.9-9.8s3.7-3.9 3.4-9.1C88.2 7.6 86.9.2 86.9.2L62.1 10.3H62l.5 1.9s6.3-2.4 8.4 0c.3.3.5.5.9 1.6.6 1.9 1.4 5.7 3 14.3.3 1.9-.4 3.1-.8 3.6v.1L62.9 43c-.4-2.8-.3-2 0 0-2.7-16.6-7.1-43-7.1-43L30.9 10.1l.5 1.8s6.3-2.4 8.4 0c.3.3.5.5.9 1.6.6 1.9 1.4 5.7 3 14.3.4 2.5-1 3.9-1 3.9l-11 11.1C29.2 26.5 24.9.3 24.9.3L0 10.4l.5 1.8s6.3-2.4 8.4 0c1 1.1 1.7.6 9.9 49.8 0 0 1.2 6.7-5.7 12.6l1.9 2.3s19.9-13 17.9-26.9c0-.4-.1-.7-.2-1.1l12.7-12.6c1.2 6.5 2.6 14.9 4.4 25.6 0 0 1.2 6.7-5.7 12.6l1.9 2.3s19.9-13 17.9-26.9M152.4 33.3c-.1.5-.2 1-.4 1.5-.4 1.7-.8 3.3-.8 3.3h7s.4-1.7.9-3.6c.6-2.1 1.1-4.4 1.1-4.4.9-3.7-1.5-9.8-7.3-8.8-2.1.4-4 1.4-5.9 2.5-2.7 1.6-5.2 3.6-7.6 5.7L135.1 44h-9.7c2.1-7.8 3.5-8.7-.1-13l-5.4 2.6c.7 1.7.5 2.8.2 4.2-.7 2.1-1.8 6.3-1.8 6.3h-3.8l-1.2 3.6h3.9l-6 24.4c.1 1.1 2.7 4.7 5.8 4.7l8.9-5.5-1.1-1.9c-5.2 3.4-5.8 1-5.8 0 1.9-7.2 5.4-21.6 5.4-21.6h8.5s1.5-.2 1.1 1.1l-6.7 27.2h7.3l7-28.3h4.9c1.3.2 2.3.7 1.9 2.3 0 0-5.4 21.9-5.5 22 .1 1.1 2.7 4.7 5.8 4.7s8.9-5.5 8.9-5.5l-1.1-1.9c-2.3 1.5-3.7 1.9-4.6 1.7h-.2c-.8-.3-.9-1.2-.9-1.7 1.9-7.2 6.3-25.2 6.3-25.2h-14.5l3.6-13.7c.8-2.1 3.4-3.9 5.4-3.6 2.2.3 1.7 3.2 1 6 0 .1 0 .3-.1.4M112.9 50.9c-.2-.4-.3-.7-.5-1-1.7-3.4-3.7-5-5.9-5.6h-.3c-.5-.1-1.1-.2-1.7-.2-4.1 0-10.5 2.8-12.1 6.9-.8 2.2-2 6-1.7 8.2 0 .3 0 .5.2.7.3.7.7 1.2 1.3 1.6 1.5 1.2 4 1.7 6.3 2.4h.1c.2 0 .4.1.6.2.9.4 1.6.9 1.8 1.7.2 1.4-.5 3.9-1.4 5.4-2.3 3.8-5.2 1.5-8-4.5-.2.1-5.2 3.1-5.4 3.2.2.4.3.7.5 1 1.7 3.4 3.7 5 5.9 5.6h.3c.5.1 1 .2 1.7.2 4.1 0 10.5-2.8 12.1-6.9.8-2.2 2-6 1.7-8.2 0-.3 0-.5-.2-.7-.3-.7-.7-1.2-1.3-1.6-1.5-1.2-4-1.7-6.3-2.4h-.1c-.2 0-.4-.1-.6-.2-.9-.4-1.6-.9-1.8-1.7-.2-1.4.5-3.9 1.4-5.4 2.3-3.8 5.2-1.5 8 4.5.2 0 5.2-3.1 5.4-3.2M241.3 21.8c-5.2-.1-10.9.4-14.7 4.4-2.2 4.1-6.5 19.5-6.5 19.5-1.3-1.9-11.8-4.3-17.8 3.8-.8 1.6-5.2 19.1-5.3 19.2-1.4 1-5.4 2.5-6 2.5-.9-.4-1.4-1.1-1.2-2.1 3.9-13.4 6.6-27.1 11-40.3 1.7-3.3 5.3-4.8 8.8-5.2v-1.8c-5.3-.1-11 .4-14.8 4.4-2.9 4.7-12.4 44-12.4 44-.5 3.3 3 6.8 5.3 6.6 3.4-1.5 6.5-3.5 9.7-5.4 1.1 1.4 2.8 3.3 4.2 4.3 4.1 3 12.2-2.3 12.3-2.2 1.1 1.8 2.9 3.7 6 3.1 2.3-.8 11.4-6.7 11.4-6.7l-1.2-2s-4.8 3.1-7.6 3.4c0 0-1.6-.1-1.2-2L232.7 29c1.6-3.3 5.3-4.8 8.8-5.2M218.6 52l-4 14.5c-.2.9-.7 1.2-1 1.6-4.8 3.9-10.5 5.5-8.5-2.9 0 0 3.5-13.5 4-14.4 3.1-4 9.9-4.5 9.4 1.2M183.1 45.2c-2.4-2.3-7.6-1-10.8-.2-3.5 1.1-7.4 2.3-9 6.3-1.3 4.6-3.6 13.2-4.8 18.8 0 1.5 4.9 6.5 8.5 6.8 1.1.4 12.4-6.9 12.4-6.9l-1.2-2s-4.6 2.9-7.4 3.3h-.3c-1.6-.2-3.6-1.5-4.2-2.9-.2-.5 1.4-6.2 1.4-6.2s10.9.5 14.1-3.6c2.3-3.8 4-10.3 1.3-13.3m-6 9c-1.6 4.6-7.2 4-8.1 3.8-.2 0 0-.3 0-.3l1.4-5.5c.9-3.1 4.7-5 6.3-4.5 2.6 1 .5 6.5.5 6.5" class="st1"/><path d="M88 45.2c-2.4-2.3-7.6-1-10.9-.2-3.5 1.1-7.4 2.3-9 6.3-1.3 4.6-3.6 13.2-4.8 18.8 0 1.5 4.9 6.5 8.5 6.8 1.1.4 12.4-6.9 12.4-6.9L83 68s-4.6 2.9-7.4 3.3h-.3c-1.6-.2-3.6-1.5-4.2-2.9-.2-.5 1.4-6.2 1.4-6.2s10.9.5 14.1-3.6c2.3-3.8 4-10.3 1.3-13.3m-5.9 9c-1.6 4.6-7.2 4-8.1 3.8-.2 0 0-.3 0-.3l1.4-5.5c.9-3.1 4.7-5 6.3-4.5 2.6 1 .5 6.5.5 6.5" class="st1"/></g><g><path d="M33.6 92.6h-5.5v-2.3h13.5v2.3h-5.4v26h-2.7v-26ZM49.6 90.3h3.6l5.8 28.3h-2.7l-1.8-9h-6.4l-1.8 9h-2.5l5.8-28.3Zm-1.8-7.4h2.3v4.6h-2.3v-4.6Zm6.2 24.5-2.7-14.1h-.1l-2.7 14.1H54Zm-1.3-24.5H55v4.6h-2.3v-4.6ZM62.6 90.3h6.3c4 0 5.6 2.7 5.6 7s-1.4 6.1-3.8 6.5v.2c3 .6 4 3.4 4 6.7 0 5.7-2.4 7.8-5.7 7.8h-6.5V90.2ZM68 103c2.2 0 3.9-1.6 3.9-5.4s-1.4-5.1-3.4-5.1h-3.2V103H68Zm.6 13.3c2.2 0 3.5-1.9 3.5-5.7s-1.7-5.5-4-5.5h-2.8v11.2h3.3ZM82.7 106.4l-5.4-16.1h2.8l4.1 12.6 3.9-12.6h2.6l-5.3 16.1v12.2h-2.7v-12.2ZM99.2 112.9V96.2c0-3.8 2.6-6.3 6.6-6.3s6.2 2.4 6.2 5.5v3.2h-2.4v-2.7c0-2.2-1.2-3.7-3.8-3.7s-3.9 1.9-3.9 4.1v16.2c0 2.7 1.5 4.1 4 4.1s3.7-1.6 3.7-3.6v-2.8h2.4v3c0 3.4-2.3 5.8-6.1 5.8s-6.7-2.2-6.7-6.1ZM116.2 90.3h10.7v2.3h-8v10h6.4v2.3h-6.4v11.3h8v2.3h-10.7V90.2ZM131 90.3h3l7.6 21.2V90.3h2.4v28.3h-2.5l-8.1-22.9v22.9H131V90.3ZM152.9 92.6h-5.5v-2.3h13.5v2.3h-5.4v26h-2.7v-26ZM164.4 90.3h5.8c4.5 0 6.5 2.9 6.5 7.7s-1.5 6.7-3.9 7.3l4.2 13.2h-2.8l-4-12.6h-3.1v12.6h-2.7V90.2Zm5.8 13.6c2.6 0 3.8-2.1 3.8-5.5s-.8-5.7-3.9-5.7h-2.9v11.2h3.1ZM181 112.8V90.3h2.7v22.1c0 2.9 1.8 4.2 3.8 4.2s3.8-1.8 3.7-4.1V90.3h2.6v22.2c0 4-2.5 6.5-6.5 6.5s-6.4-2-6.4-6.2ZM198.6 90.3h3.2l4.7 12.4 4.6-12.4h3.1v28.3h-2.4V95.5l-4.4 11.7h-1.8l-4.4-11.6v23h-2.4V90.3Z" class="st0"/></g></svg>