<?xml version="1.0" encoding="UTF-8"?>
<svg id="Layer_1" data-name="Layer 1" xmlns="http://www.w3.org/2000/svg" viewBox="0 0 279 134">
  <defs>
    <style>
      .cls-1 {
        fill: #1268b3;
      }

      .cls-2 {
        fill: #db3328;
      }

      .cls-3 {
        fill: #fff;
        fill-rule: evenodd;
      }

      .cls-4 {
        fill: #faa61a;
      }
    </style>
  </defs>
  <g>
    <path d="M110.76,33.81h6.21l5.74,17.94c.23.74.45,1.57.68,2.51.23.93.44,1.81.64,2.63.23.96.45,1.96.68,2.98h.09c.23-1.02.45-2.01.68-2.98.2-.82.41-1.7.64-2.63.23-.94.45-1.77.68-2.51l5.65-17.94h6.04l-10.76,31.63h-6.29l-10.67-31.63Z"/>
    <path d="M153.65,65.99c-.2-.25-.36-.62-.49-1.08-.13-.47-.22-1.08-.28-1.85h-.09c-.74.99-1.66,1.82-2.76,2.49s-2.57,1-4.38,1c-1.1,0-2.13-.14-3.08-.43-.95-.28-1.76-.71-2.44-1.28-.68-.57-1.22-1.27-1.62-2.1-.4-.84-.59-1.81-.59-2.91,0-1.28.23-2.33.7-3.17.47-.84,1.11-1.51,1.93-2.02.82-.51,1.8-.9,2.93-1.17,1.13-.27,2.38-.49,3.74-.66,1.87-.23,3.27-.54,4.21-.96.93-.41,1.4-1.13,1.4-2.15s-.34-1.79-1.02-2.38c-.68-.59-1.7-.89-3.06-.89-1.53,0-2.67.33-3.42.98-.75.65-1.15,1.54-1.21,2.68h-5.1c.03-.96.25-1.89.66-2.78.41-.89,1.02-1.68,1.83-2.36s1.81-1.23,3-1.64c1.19-.41,2.59-.62,4.21-.62,1.3,0,2.46.1,3.46.3,1.01.2,1.88.54,2.61,1.02,2.15,1.3,3.23,3.46,3.23,6.46v11.94c0,.94.08,1.66.23,2.17.16.51.36.85.62,1.02v.38h-5.23ZM141.32,34.36h5.19v5.23h-5.19v-5.23ZM147.23,62.85c.93,0,1.76-.15,2.47-.45.71-.3,1.3-.68,1.79-1.15.48-.47.85-1.01,1.1-1.62s.38-1.24.38-1.89v-3.36c-.54.34-1.2.63-2,.87-.79.24-1.6.45-2.42.62-1.67.31-2.96.72-3.87,1.21-.91.5-1.36,1.37-1.36,2.61,0,.6.11,1.1.32,1.51.21.41.5.74.85.98.35.24.77.41,1.25.51s.98.15,1.49.15ZM150.76,34.36h5.19v5.23h-5.19v-5.23Z"/>
    <path d="M171.24,66.71c-3.26,0-5.79-.71-7.59-2.13-1.8-1.42-2.78-3.27-2.95-5.57h5.19c.23,1.36.82,2.35,1.78,2.95.96.61,2.17.91,3.61.91s2.61-.29,3.32-.87c.71-.58,1.06-1.32,1.06-2.23,0-.57-.14-1.03-.43-1.38-.28-.35-.68-.65-1.19-.89-.51-.24-1.13-.44-1.85-.59-.72-.16-1.52-.32-2.4-.49-1.08-.2-2.11-.44-3.1-.72-.99-.28-1.87-.67-2.64-1.17-.77-.5-1.38-1.15-1.85-1.96s-.7-1.85-.7-3.12c0-1.08.22-2.03.66-2.87.44-.84,1.05-1.54,1.83-2.13.78-.58,1.72-1.02,2.83-1.32,1.11-.3,2.32-.45,3.66-.45,3.03,0,5.32.62,6.86,1.85s2.46,2.84,2.74,4.82h-5.14c-.4-2.01-1.9-3.02-4.51-3.02-1.28,0-2.23.25-2.87.77-.64.51-.96,1.16-.96,1.96,0,.51.14.92.43,1.23.28.31.68.57,1.19.79.51.21,1.12.39,1.83.53.71.14,1.49.3,2.34.47,1.08.2,2.13.43,3.15.7,1.02.27,1.93.67,2.74,1.19.81.52,1.45,1.22,1.93,2.08.48.86.72,1.99.72,3.38,0,1.19-.24,2.24-.72,3.15-.48.91-1.15,1.67-2.02,2.27-.86.61-1.89,1.07-3.08,1.38-1.19.31-2.48.47-3.87.47Z"/>
    <path d="M181.98,43.29h3.49v-7.23h5.31v7.23h4.55v3.7h-4.55v12.71c0,.82.21,1.38.64,1.68s1.02.45,1.79.45c.28,0,.59-.01.91-.04.33-.03.6-.07.83-.13h.25v4.21c-.45.09-.98.16-1.57.23-.6.07-1.26.11-2,.11-.91,0-1.74-.09-2.51-.28-.77-.18-1.42-.48-1.96-.89-.54-.41-.96-.96-1.25-1.64-.3-.68-.45-1.52-.45-2.51v-13.9h-3.49v-3.7Z"/>
    <path d="M207.86,66.67c-1.81,0-3.44-.31-4.87-.93-1.43-.62-2.64-1.47-3.64-2.55-.99-1.08-1.75-2.35-2.27-3.8-.53-1.46-.79-3.02-.79-4.7s.27-3.28.81-4.74c.54-1.46,1.3-2.73,2.3-3.8.99-1.08,2.18-1.92,3.57-2.53,1.39-.61,2.92-.91,4.59-.91s3.15.28,4.44.83c1.29.55,2.42,1.34,3.38,2.36,1.11,1.19,1.93,2.64,2.47,4.36.54,1.72.79,3.64.77,5.76h-16.96c.2,1.96.81,3.54,1.85,4.74,1.03,1.2,2.5,1.81,4.4,1.81,1.3,0,2.37-.26,3.21-.79.84-.52,1.44-1.25,1.81-2.19h5.27c-.28,1.02-.72,1.96-1.3,2.83-.58.86-1.31,1.62-2.19,2.25-.88.64-1.89,1.13-3.04,1.49-1.15.35-2.42.53-3.8.53ZM207.56,46.61c-1.79,0-3.15.55-4.08,1.66-.94,1.1-1.52,2.55-1.74,4.34h11.31c-.11-1.87-.65-3.34-1.59-4.4-.95-1.06-2.25-1.59-3.89-1.59Z"/>
    <path d="M226.85,47.37h.13c1.44-2.95,3.61-4.42,6.5-4.42.65,0,1.13.07,1.45.21v4.85h-.17c-.45-.11-.95-.17-1.49-.17-1.79-.03-3.27.55-4.46,1.72-1.19,1.18-1.78,2.86-1.78,5.04v11.39h-5.4v-22.7h5.23v4.08Z"/>
    <path d="M251.72,65.99c-.2-.25-.36-.62-.49-1.08-.13-.47-.22-1.08-.28-1.85h-.09c-.74.99-1.66,1.82-2.76,2.49-1.11.67-2.57,1-4.38,1-1.1,0-2.13-.14-3.08-.43-.95-.28-1.76-.71-2.44-1.28-.68-.57-1.22-1.27-1.62-2.1-.4-.84-.59-1.81-.59-2.91,0-1.28.23-2.33.7-3.17.47-.84,1.11-1.51,1.93-2.02.82-.51,1.8-.9,2.93-1.17,1.13-.27,2.38-.49,3.74-.66,1.87-.23,3.27-.54,4.21-.96.94-.41,1.4-1.13,1.4-2.15s-.34-1.79-1.02-2.38c-.68-.59-1.7-.89-3.06-.89-1.53,0-2.67.33-3.42.98-.75.65-1.15,1.54-1.21,2.68h-5.1c.03-.96.25-1.89.66-2.78.41-.89,1.02-1.68,1.83-2.36s1.81-1.23,3-1.64c1.19-.41,2.59-.62,4.21-.62,1.3,0,2.46.1,3.46.3,1,.2,1.88.54,2.61,1.02,2.15,1.3,3.23,3.46,3.23,6.46v11.94c0,.94.08,1.66.23,2.17.16.51.36.85.62,1.02v.38h-5.23ZM245.3,62.85c.93,0,1.76-.15,2.47-.45.71-.3,1.3-.68,1.78-1.15.48-.47.85-1.01,1.11-1.62.25-.61.38-1.24.38-1.89v-3.36c-.54.34-1.2.63-2,.87-.79.24-1.6.45-2.42.62-1.67.31-2.96.72-3.87,1.21-.91.5-1.36,1.37-1.36,2.61,0,.6.11,1.1.32,1.51.21.41.5.74.85.98.35.24.77.41,1.25.51s.98.15,1.49.15ZM246.74,40.61c-.65,0-1.26-.11-1.83-.34-.57-.23-1.06-.55-1.49-.96-.43-.41-.76-.89-1-1.42-.24-.54-.36-1.13-.36-1.79s.12-1.2.36-1.74c.24-.54.57-1.01,1-1.42.43-.41.92-.74,1.49-.98.57-.24,1.18-.36,1.83-.36s1.21.12,1.76.36,1.04.57,1.47.98c.43.41.76.89,1,1.42.24.54.36,1.12.36,1.74s-.12,1.25-.36,1.79c-.24.54-.57,1.01-1,1.42-.43.41-.91.73-1.47.96-.55.23-1.14.34-1.76.34ZM246.74,38.49c.65,0,1.19-.23,1.62-.68.43-.45.64-1.02.64-1.7s-.21-1.25-.64-1.72c-.43-.47-.96-.7-1.62-.7-.71,0-1.28.23-1.7.7-.43.47-.64,1.04-.64,1.72s.21,1.25.64,1.7c.43.45.99.68,1.7.68Z"/>
    <path d="M269.31,66.71c-3.26,0-5.79-.71-7.59-2.13-1.8-1.42-2.78-3.27-2.95-5.57h5.19c.23,1.36.82,2.35,1.79,2.95.96.61,2.17.91,3.61.91s2.61-.29,3.32-.87c.71-.58,1.06-1.32,1.06-2.23,0-.57-.14-1.03-.43-1.38-.28-.35-.68-.65-1.19-.89-.51-.24-1.13-.44-1.85-.59-.72-.16-1.52-.32-2.4-.49-1.08-.2-2.11-.44-3.1-.72-.99-.28-1.87-.67-2.63-1.17-.77-.5-1.38-1.15-1.85-1.96-.47-.81-.7-1.85-.7-3.12,0-1.08.22-2.03.66-2.87.44-.84,1.05-1.54,1.83-2.13.78-.58,1.72-1.02,2.83-1.32,1.1-.3,2.32-.45,3.66-.45,3.03,0,5.32.62,6.87,1.85,1.54,1.23,2.46,2.84,2.74,4.82h-5.14c-.4-2.01-1.9-3.02-4.51-3.02-1.28,0-2.23.25-2.87.77-.64.51-.96,1.16-.96,1.96,0,.51.14.92.43,1.23.28.31.68.57,1.19.79.51.21,1.12.39,1.83.53.71.14,1.49.3,2.34.47,1.08.2,2.13.43,3.15.7,1.02.27,1.93.67,2.74,1.19s1.45,1.22,1.93,2.08c.48.86.72,1.99.72,3.38,0,1.19-.24,2.24-.72,3.15-.48.91-1.15,1.67-2.02,2.27-.87.61-1.89,1.07-3.08,1.38-1.19.31-2.48.47-3.87.47Z"/>
    <path d="M123.41,104.3c-3.23,0-5.73-.7-7.51-2.1-1.78-1.4-2.76-3.24-2.93-5.51h5.14c.22,1.35.81,2.32,1.77,2.93.95.6,2.15.9,3.58.9s2.58-.29,3.28-.86c.7-.57,1.05-1.31,1.05-2.21,0-.56-.14-1.02-.42-1.37-.28-.35-.67-.65-1.18-.88-.51-.24-1.12-.43-1.83-.59s-1.51-.32-2.38-.48c-1.07-.2-2.09-.43-3.07-.72-.98-.28-1.85-.67-2.61-1.16-.76-.49-1.37-1.14-1.83-1.94-.46-.8-.7-1.83-.7-3.09,0-1.07.22-2.01.65-2.84.43-.83,1.04-1.53,1.81-2.1.77-.58,1.7-1.01,2.8-1.31,1.09-.29,2.3-.44,3.62-.44,3,0,5.27.61,6.8,1.83,1.53,1.22,2.43,2.81,2.71,4.78h-5.09c-.39-1.99-1.88-2.99-4.46-2.99-1.26,0-2.21.25-2.84.76s-.95,1.15-.95,1.94c0,.51.14.91.42,1.22.28.31.67.57,1.18.78.51.21,1.11.39,1.81.53.7.14,1.47.29,2.32.46,1.07.2,2.1.43,3.11.69,1.01.27,1.92.66,2.72,1.18.8.52,1.44,1.21,1.92,2.06.48.86.72,1.97.72,3.35,0,1.18-.24,2.22-.72,3.11-.48.9-1.14,1.65-2,2.25-.86.6-1.87,1.06-3.05,1.37-1.18.31-2.46.46-3.83.46Z"/>
    <path d="M134.04,81.1h3.45v-7.16h5.26v7.16h4.5v3.66h-4.5v12.59c0,.81.21,1.37.63,1.66s1.01.44,1.77.44c.28,0,.58-.01.91-.04.32-.03.6-.07.82-.13h.25v4.17c-.45.08-.97.16-1.56.23-.59.07-1.25.1-1.98.1-.9,0-1.73-.09-2.48-.27s-1.4-.48-1.94-.88c-.53-.41-.95-.95-1.24-1.62-.3-.67-.44-1.5-.44-2.48v-13.77h-3.45v-3.66Z"/>
    <path d="M164.59,103.58c-.2-.25-.36-.61-.48-1.07-.13-.46-.22-1.07-.27-1.83h-.08c-.73.98-1.64,1.8-2.74,2.46-1.09.66-2.54.99-4.34.99-1.09,0-2.11-.14-3.05-.42-.94-.28-1.75-.7-2.42-1.26-.67-.56-1.21-1.26-1.6-2.08-.39-.83-.59-1.79-.59-2.88,0-1.26.23-2.31.69-3.14.46-.83,1.1-1.49,1.92-2,.81-.51,1.78-.89,2.9-1.16,1.12-.27,2.36-.48,3.7-.65,1.85-.22,3.24-.54,4.17-.95.93-.41,1.39-1.12,1.39-2.13s-.34-1.77-1.01-2.36c-.67-.59-1.68-.88-3.03-.88-1.52,0-2.65.32-3.39.97-.74.65-1.14,1.53-1.2,2.65h-5.05c.03-.95.25-1.87.65-2.76.41-.88,1.01-1.66,1.81-2.34.8-.67,1.79-1.21,2.97-1.62,1.18-.41,2.57-.61,4.17-.61,1.29,0,2.43.1,3.43.3,1,.2,1.86.53,2.59,1.01,2.13,1.29,3.2,3.42,3.2,6.4v11.83c0,.93.08,1.64.23,2.15.15.51.36.84.61,1.01v.38h-5.18ZM158.23,100.46c.93,0,1.74-.15,2.44-.44.7-.3,1.29-.67,1.77-1.14.48-.46.84-1,1.09-1.6.25-.6.38-1.23.38-1.87v-3.33c-.53.34-1.19.62-1.98.86-.79.24-1.59.44-2.4.61-1.66.31-2.93.71-3.83,1.2-.9.49-1.35,1.35-1.35,2.59,0,.59.11,1.09.32,1.49.21.41.49.73.84.97.35.24.76.41,1.24.51s.97.15,1.47.15Z"/>
    <path d="M181.68,104.3c-1.49,0-2.83-.27-4.04-.82-1.21-.55-2.23-1.34-3.07-2.38s-1.49-2.29-1.96-3.77-.69-3.12-.69-4.95.24-3.42.72-4.88c.48-1.46,1.15-2.71,2.02-3.75.87-1.04,1.9-1.84,3.09-2.4,1.19-.56,2.5-.84,3.94-.84,1.57,0,2.93.34,4.08,1.03s2.09,1.62,2.82,2.8h.08c-.06-.62-.1-1.34-.13-2.17-.03-.83-.04-1.66-.04-2.5v-7.41h5.35v31.32h-5.18v-3.28h-.08c-.7,1.32-1.64,2.31-2.82,2.99-1.18.67-2.54,1.01-4.08,1.01ZM182.77,99.92c.98,0,1.84-.18,2.59-.55.74-.36,1.36-.88,1.85-1.56.49-.67.86-1.47,1.12-2.4.25-.93.38-1.94.38-3.03s-.13-2.15-.38-3.09c-.25-.94-.62-1.75-1.12-2.44-.49-.69-1.11-1.22-1.85-1.6s-1.61-.57-2.59-.57c-.9,0-1.69.19-2.38.57-.69.38-1.26.91-1.7,1.6-.45.69-.79,1.5-1.01,2.44-.22.94-.34,1.96-.34,3.05,0,2.25.45,4.07,1.35,5.47.9,1.4,2.26,2.1,4.08,2.1Z"/>
  </g>
  <g>
    <g>
      <path class="cls-3" d="M1.89,30.14h89.51v83.99c0,7.85-6.36,14.21-14.21,14.21h-27.66l-2.88,4.03-2.88-4.03h-27.66c-7.85,0-14.21-6.36-14.21-14.21V30.14Z"/>
      <polygon class="cls-4" points="92.49 1.05 78.61 1.05 78.61 7.47 80.24 7.47 80.24 13.07 71.41 13.07 71.41 13.07 71.41 7.47 73.04 7.47 73.04 1.05 59.16 1.05 59.16 7.47 60.79 7.47 60.79 13.07 51.96 13.07 51.96 7.47 53.59 7.47 53.59 1.05 39.71 1.05 39.71 7.47 41.34 7.47 41.34 13.07 32.51 13.07 32.51 7.47 34.14 7.47 34.14 1.05 20.25 1.05 20.25 7.47 21.88 7.47 21.88 13.07 13.05 13.07 13.05 7.47 14.68 7.47 14.68 1.05 .8 1.05 .8 7.47 2.43 7.47 2.43 13.07 7.74 18.38 7.74 30.14 85.55 30.14 85.55 18.38 90.86 13.07 90.86 7.47 92.49 7.47 92.49 1.05"/>
      <g>
        <rect x="6.94" y="10.37" width="1.6" height="2.8"/>
        <rect x="26.39" y="10.37" width="1.6" height="2.8"/>
        <rect x="45.85" y="10.37" width="1.6" height="2.8"/>
        <rect x="65.3" y="10.37" width="1.6" height="2.8"/>
        <rect x="84.75" y="10.37" width="1.6" height="2.8"/>
        <path d="M91.67,13.4v-5.13h1.63V.25h-15.48v8.02h1.63v4h-7.23v-4h1.63V.25h-15.48v8.02h1.63v4h-7.23v-4h1.63V.25h-15.48v8.02h1.63v4h-7.23v-4h1.63V.25h-15.48v8.02h1.63v4h-7.23v-4h1.63V.25H0v8.02h1.63v5.13l5.31,5.31v10.64H1.09v84.79c0,8.28,6.74,15.02,15.02,15.02h27.24l3.3,4.6,3.3-4.6h27.24c8.28,0,15.02-6.74,15.02-15.02V29.34h-5.85v-10.63l5.31-5.31ZM79.41,6.66V1.85h5.34v2.57h1.6V1.85h5.34v4.82h-12.28ZM79.91,13.87l4.84,4.84v2.18h-17.85v-2.18l4.84-4.84h8.17ZM84.75,22.5v6.85h-8.12v-6.85h8.12ZM75.02,22.5v6.85h-17.85v-6.85h17.85ZM66.1,17.24l-4.51-4.51v-4.47h9.02v4.47l-4.51,4.51ZM59.96,6.66V1.85h5.34v2.57h1.6V1.85h5.34v4.82h-12.28ZM60.46,13.87l4.84,4.84v2.18h-17.85v-2.18l4.84-4.84h8.18ZM55.57,22.5v6.85h-17.85v-6.85h17.85ZM46.65,17.24l-4.51-4.51v-4.47h9.02v4.47l-4.51,4.51ZM40.51,6.66V1.85h5.34v2.57h1.6V1.85h5.34v4.82h-12.28ZM41.01,13.87l4.84,4.84v2.18h-17.85v-2.18l4.84-4.84h8.17ZM36.12,22.5v6.85h-17.85v-6.85h17.85ZM27.2,17.24l-4.51-4.51v-4.47h9.02v4.47l-4.51,4.51ZM21.06,6.66V1.85h5.34v2.57h1.6V1.85h5.34v4.82h-12.28ZM21.56,13.87l4.84,4.84v2.18H8.54v-2.18l4.84-4.84h8.18ZM16.67,22.5v6.85h-8.13v-6.85h8.13ZM1.6,6.66V1.85h5.34v2.57h1.6V1.85h5.34v4.82H1.6ZM3.23,12.73v-4.47h9.02v4.47l-4.51,4.51-4.51-4.51ZM90.6,30.95v83.19c0,7.4-6.02,13.41-13.41,13.41h-28.07l-2.47,3.45-2.47-3.45h-28.07c-7.4,0-13.41-6.02-13.41-13.41V30.95s87.91,0,87.91,0ZM85.55,17.24l-4.51-4.51v-4.47h9.02v4.47l-4.51,4.51Z"/>
      </g>
    </g>
    <path class="cls-1" d="M87.71,104.24s-5.01-4.72-7.5-10.53c-2.09-4.87-13.86-32.69-17.61-41.56,6.87,1.07,13.74,2.81,20.58,5.28-1.66-6.74-1.3-13.59.89-20.55-12.47,3.62-24.95,5.41-37.43,5.41s-24.96-1.79-37.43-5.41c2.19,6.96,2.55,13.81.89,20.55,6.85-2.47,13.71-4.21,20.58-5.28-3.75,8.87-15.52,36.69-17.61,41.56-2.49,5.81-7.5,10.53-7.5,10.53,7.23.14,14.35,1.81,20.09,6.06-1.29-3.09-1.59-7.91.41-14.72,1.28-4.37,6.1-20.08,9.39-30.79l11.18,18.82h0s0,0,0,0l11.18-18.82c3.29,10.71,8.11,26.42,9.39,30.79,1.99,6.81,1.7,11.62.41,14.72,5.74-4.26,12.86-5.93,20.09-6.06ZM54.97,51.23l-8.32,16.34-8.32-16.34c2.77-.23,5.54-.35,8.32-.35s5.55.13,8.32.35Z"/>
    <g>
      <path class="cls-2" d="M52.56,91.67c-.56-.05-1.24.1-2.16.33-1.06.26-2.26.54-3.75.54-1.47,0-2.68-.29-3.73-.54-.94-.23-1.61-.37-2.17-.34-.59.04-.92.71-.58,1.2.02.04.04.07.07.11.21.28.46.53.79.86.51.49,1.15,1.11,1.89,2.15.35.47.46,1.1.27,1.67-.12.37-.35.7-.68.93-.4.29-.89.41-1.38.33-.49-.08-.92-.34-1.21-.74-.76-1.04-1.15-1.83-1.46-2.47-.21-.4-.36-.73-.57-1.02-.03-.04-.05-.07-.08-.11-.36-.47-1.11-.36-1.33.19-.21.52-.29,1.2-.35,2.16-.08,1.09-.19,2.32-.64,3.73s-1.1,2.47-1.67,3.4c-.51.82-.85,1.41-.98,1.96-.14.57.39,1.1.96.93.05-.02.08-.03.13-.04.33-.11.65-.28,1.06-.49.63-.33,1.41-.74,2.63-1.14.47-.15.98-.12,1.42.11.44.23.77.61.92,1.08.13.38.13.78,0,1.15-.19.57-.64,1.02-1.2,1.19-1.22.41-2.09.53-2.8.63-.46.07-.81.13-1.14.23-.05.02-.08.03-.12.05-.56.2-.69.93-.24,1.31.43.36,1.06.64,1.95,1,1,.42,2.14.9,3.34,1.76,1.2.88,2,1.81,2.71,2.64.62.73,1.07,1.24,1.56,1.54.51.32,1.16-.04,1.18-.64,0-.04,0-.08,0-.12,0-.35-.07-.7-.14-1.15-.12-.69-.27-1.57-.27-2.85,0-.2.03-.39.09-.58.25-.76.95-1.28,1.77-1.28.5,0,.97.19,1.32.54.35.35.55.82.54,1.31,0,1.29-.15,2.15-.26,2.85-.08.45-.14.81-.14,1.16,0,.04,0,.08,0,.13.03.6.67.95,1.19.63.48-.3.93-.82,1.55-1.54.71-.82,1.51-1.75,2.71-2.63,1.2-.87,2.34-1.36,3.35-1.77.88-.36,1.5-.64,1.93-1.01.46-.38.32-1.12-.24-1.31-.04-.02-.07-.03-.1-.04-.33-.11-.69-.16-1.14-.22-.7-.11-1.58-.24-2.8-.63-.97-.32-1.53-1.37-1.2-2.35.31-.99,1.38-1.51,2.35-1.2,1.22.4,2,.81,2.64,1.13.4.22.72.38,1.05.49.03,0,.07.02.11.02.57.17,1.11-.34.96-.92-.13-.55-.47-1.14-.97-1.95-.57-.92-1.21-1.98-1.67-3.4-.46-1.41-.56-2.64-.65-3.72-.08-.95-.14-1.64-.35-2.16-.23-.56-.96-.66-1.33-.19-.03.03-.05.07-.08.1-.2.28-.37.61-.56,1.02-.32.63-.71,1.43-1.46,2.46-.29.4-.72.67-1.21.74-.49.08-.99-.04-1.39-.34-.66-.48-.92-1.31-.67-2.07.06-.19.15-.36.27-.53.75-1.03,1.38-1.66,1.89-2.15.33-.33.59-.57.79-.85.02-.03.04-.07.07-.11.34-.49.02-1.17-.58-1.21ZM47.14,94.08l.58,1.78c.93,2.86,3.58,4.79,6.59,4.79h1.88c.52,0,.74.68.31.98l-1.51,1.1c-2.43,1.77-3.45,4.9-2.52,7.75l.57,1.78c.17.5-.41.91-.83.6l-1.52-1.09c-2.43-1.77-5.72-1.76-8.14,0l-1.52,1.1c-.42.31-.99-.1-.83-.6l.58-1.79c.93-2.85-.09-5.98-2.52-7.74l-1.52-1.1c-.42-.3-.2-.98.32-.98h1.87c3,0,5.66-1.92,6.59-4.78l.58-1.78c.16-.5.87-.5,1.03,0Z"/>
      <path class="cls-2" d="M57.46,89.41l-2.52.77v.74h.01c.01.63-.43,1.83-1.05,2.68-.62.85-1.48,1.35-2.68,3.01-.26.36-.18.87.18,1.13.36.26.87.18,1.13-.18,1.21-1.66,1.41-2.63,2.03-3.48s1.63-1.64,2.23-1.82h0l.71-.22-.05-2.63Z"/>
      <path class="cls-2" d="M46.65,112.4c-.45,0-.81.36-.81.81,0,2.05.4,2.96.4,4.01,0,1.05-.35,2.28-.73,2.78l-.45.59,1.58,2.1,1.58-2.1-.45-.59c-.38-.5-.73-1.74-.73-2.78,0-1.05.4-1.96.4-4.01,0-.45-.36-.81-.81-.81Z"/>
      <path class="cls-2" d="M61.94,108.07c-.59.21-1.88.16-2.87-.16s-1.74-.99-3.69-1.62c-.43-.14-.88.09-1.02.52s.09.88.52,1.02c1.95.63,2.94.53,3.94.86s2.06,1.04,2.42,1.55l.43.61,2.49-.86-1.51-2.16-.7.24Z"/>
      <path class="cls-2" d="M38.35,90.18l-2.52-.77-.05,2.63.71.22h0c.6.18,1.61.98,2.23,1.82s.82,1.82,2.03,3.48c.26.36.77.44,1.13.18.36-.26.44-.77.18-1.13-1.21-1.66-2.07-2.16-2.68-3.01-.62-.85-1.06-2.05-1.04-2.68v-.74Z"/>
      <path class="cls-2" d="M37.92,106.28c-1.95.63-2.69,1.3-3.69,1.62-1,.32-2.28.37-2.87.16l-.7-.24-1.51,2.16,2.49.86.42-.61c.36-.52,1.43-1.23,2.42-1.56s1.99-.22,3.94-.86c.43-.14.66-.6.52-1.02-.14-.43-.6-.66-1.02-.52Z"/>
      <path class="cls-2" d="M46.64,96.8c-1.26,2.9-3.98,4.88-7.12,5.18,2.37,2.09,3.4,5.29,2.72,8.37,2.71-1.61,6.09-1.61,8.8,0-.33-1.51-.26-3.07.23-4.55s1.34-2.8,2.49-3.82c-3.14-.3-5.86-2.28-7.12-5.18ZM50.53,105.56c-.7,2.14-3.01,3.31-5.15,2.62s-3.32-3-2.62-5.14,3-3.32,5.14-2.62,3.33,3,2.63,5.14Z"/>
      <circle class="cls-2" cx="46.65" cy="104.3" r="2.68"/>
      <path class="cls-2" d="M32.44,103.23c.52-.85,1.11-1.82,1.51-3.06s.5-2.37.58-3.36c.1-1.29.2-2.54.98-3.53-.65.01-1.33.34-1.7.99-.78,1.37-.67,3.3-1.36,5.42s-1.91,3.62-2.08,5.18c-.08.74.28,1.41.8,1.8-.04-1.26.61-2.32,1.28-3.43Z"/>
      <path class="cls-2" d="M41.24,117.48c-.65-.76-1.39-1.62-2.44-2.38s-2.1-1.2-3.02-1.59c-1.2-.5-2.35-.98-3.05-2.02-.19.62-.09,1.37.41,1.92,1.06,1.17,2.93,1.66,4.73,2.97,1.8,1.31,2.85,2.94,4.28,3.58.68.31,1.43.17,1.96-.2-1.21-.35-2.02-1.29-2.87-2.28Z"/>
      <path class="cls-2" d="M57.52,113.51c-.92.38-1.97.82-3.02,1.59s-1.79,1.62-2.44,2.38c-.84.99-1.66,1.93-2.87,2.28.53.37,1.28.51,1.96.2,1.44-.65,2.48-2.28,4.28-3.58s3.67-1.8,4.73-2.97c.5-.55.6-1.3.41-1.92-.7,1.04-1.86,1.52-3.05,2.02Z"/>
      <path class="cls-2" d="M58.77,96.8c.08,1,.17,2.12.58,3.36s.99,2.21,1.51,3.06c.68,1.11,1.33,2.17,1.28,3.43.52-.39.88-1.06.8-1.8-.17-1.57-1.4-3.07-2.08-5.18s-.58-4.05-1.36-5.42c-.37-.65-1.05-.97-1.7-.99.78.99.87,2.24.98,3.53Z"/>
      <path class="cls-2" d="M43.27,90.45c.97.23,2.07.49,3.38.49s2.41-.26,3.38-.49c1.26-.3,2.48-.59,3.66-.16-.21-.61-.73-1.16-1.46-1.31-1.54-.32-3.35.38-5.57.38s-4.03-.7-5.57-.38c-.73.15-1.25.7-1.46,1.31,1.18-.43,2.4-.14,3.66.16Z"/>
    </g>
  </g>
</svg>