<svg width="162" height="53" viewBox="0 0 162 53" fill="none" xmlns="http://www.w3.org/2000/svg">
<path d="M43.0045 33.6103C42.9714 33.3979 42.9382 33.1657 42.9117 32.9335L51.3684 24.4872L57.903 17.9583C57.903 17.9583 60.3552 15.3641 60.1431 11.894C59.1225 5.6239 58.3073 0.654297 58.3073 0.654297L41.8977 7.34899L41.8248 7.38217L42.1297 8.59637C42.1297 8.59637 46.305 6.99071 47.7034 8.53002C47.8757 8.72907 48.0414 8.85514 48.2866 9.55844C48.6644 10.8058 49.2409 13.3736 50.2881 19.0133C50.4869 20.2474 50.0164 21.0635 49.7645 21.4019C49.7314 21.4483 49.7049 21.4749 49.7049 21.4749L42.3351 28.9326C42.0435 27.0483 42.1297 27.6122 42.3219 28.9392C40.6584 18.1839 37.7755 0.694107 37.7755 0.694107L21.293 7.42198L21.5912 8.64282C21.5912 8.64282 25.7665 7.03052 27.1583 8.57647C27.3306 8.77552 27.4963 8.89495 27.7415 9.60489C28.1193 10.8523 28.7025 13.4134 29.743 19.0664C30.0015 20.7185 29.067 21.6275 29.067 21.6275L21.7834 28.9989C20.1332 18.2237 17.2701 0.826806 17.2701 0.826806L0.781006 7.55468L1.08587 8.76888C1.08587 8.76888 5.26116 7.16322 6.65956 8.70917C7.30905 9.43901 7.75309 9.12054 13.2009 41.7248C13.2009 41.7248 14.0227 46.157 9.40995 50.0916L10.6758 51.611C10.6758 51.611 23.8379 42.9921 22.5124 33.743C22.4793 33.5041 22.4395 33.252 22.3998 32.9866L30.81 24.6066C31.5788 28.9326 32.5265 34.4728 33.7128 41.5921C33.7128 41.5921 34.5346 46.0243 29.9153 49.9522L31.1811 51.4716C31.1811 51.4716 44.3433 42.8528 43.0178 33.597" fill="#DE2426"/>
<path d="M101.789 22.7624C101.716 23.0942 101.63 23.4458 101.544 23.7842C101.265 24.9387 100.994 26.0003 100.994 26.0003H105.646C105.646 26.0003 105.944 24.8392 106.262 23.6051C106.627 22.1852 107.024 20.6658 107.024 20.6591C107.628 18.2174 106.05 14.1303 102.186 14.8137C100.788 15.0592 99.5156 15.7492 98.2829 16.4724C96.4868 17.5274 94.8167 18.8809 93.2261 20.2743C93.2526 20.2743 90.3896 29.9216 90.3896 29.9216L83.9477 29.9348C85.3196 24.733 86.2607 24.169 83.8682 21.2894L80.2827 23.0013C80.7665 24.1425 80.5876 24.8591 80.4086 25.7747C79.9778 27.1946 79.1892 29.9614 79.1892 29.9614H76.6707L75.9086 32.3301H78.5132C78.5132 32.3301 74.5632 48.4929 74.5234 48.4929C74.603 49.2426 76.293 51.5848 78.3409 51.6113C78.3077 51.6113 84.2525 47.9687 84.2194 47.9422L83.5103 46.7014C80.0375 48.964 79.6465 47.3848 79.673 46.6417C80.9057 41.8911 83.2253 32.3301 83.2253 32.3301H88.8851C88.8851 32.3301 89.8859 32.2173 89.6407 33.0665L85.2202 51.127H90.0582L94.6842 32.3301C94.6842 32.3301 97.925 32.3168 97.9117 32.3301C98.7998 32.4495 99.4294 32.7613 99.1444 33.8561C99.1444 33.8561 95.5656 48.3867 95.5325 48.4862C95.612 49.236 97.302 51.5781 99.3499 51.6047L105.228 47.9355L104.513 46.7081C102.982 47.6967 102.047 47.9422 101.491 47.8493C101.477 47.8493 101.457 47.8493 101.444 47.836C101.418 47.836 101.398 47.8294 101.378 47.8161C101.358 47.8161 101.331 47.8028 101.312 47.7962C101.298 47.7962 101.292 47.7962 101.285 47.7962C100.762 47.5839 100.669 47.0133 100.682 46.6417C101.915 41.8911 104.824 29.9216 104.824 29.9216H95.2409L97.6201 20.8648C98.1636 19.4914 99.8801 18.2772 101.199 18.4829C102.637 18.7084 102.306 20.5729 101.862 22.4771C101.835 22.57 101.815 22.6695 101.795 22.7558" fill="#DE2426"/>
<path d="M75.5718 34.3989C75.4657 34.16 75.3531 33.9278 75.2272 33.7088C74.1336 31.4529 72.7485 30.4179 71.3368 30.0131C71.2639 29.9866 71.191 29.98 71.1248 29.9534C70.8 29.8738 70.4289 29.834 70.018 29.834C67.2808 29.8539 63.0658 31.6785 61.9988 34.432C61.442 35.8652 60.66 38.4064 60.8522 39.8462C60.8787 40.012 60.9185 40.1779 60.9715 40.3173C61.1504 40.7618 61.4553 41.1068 61.8463 41.3988C62.8603 42.1883 64.5106 42.5201 65.9951 42.9978C66.015 43.0044 66.0349 43.0111 66.0614 43.0243C66.1939 43.0641 66.3265 43.1106 66.4524 43.157C67.0555 43.4025 67.5327 43.7276 67.6387 44.2916C67.8044 45.194 67.314 46.8527 66.691 47.8878C65.1799 50.3825 63.2315 48.8698 61.4155 44.902C61.4089 44.902 61.3957 44.902 61.3691 44.9153C61.2366 44.9883 57.903 46.9721 57.7837 47.0385V47.0451C57.8897 47.2906 58.009 47.5096 58.1283 47.7285C59.2218 49.9911 60.607 51.0261 62.0319 51.4375C62.0982 51.4508 62.1711 51.4773 62.244 51.4839C62.5687 51.5636 62.9332 51.61 63.3441 51.6034C66.0813 51.5901 70.2963 49.7588 71.37 46.9987C71.9201 45.5655 72.7087 43.031 72.5099 41.5912C72.49 41.412 72.4436 41.2528 72.3906 41.1135C72.2183 40.6755 71.9068 40.3239 71.5224 40.032C70.5018 39.2424 68.8515 38.9106 67.367 38.4329C67.3471 38.4329 67.3206 38.413 67.3007 38.413C67.1682 38.3732 67.0422 38.3268 66.9097 38.2803C66.3066 38.0282 65.8228 37.7031 65.7234 37.1391C65.5643 36.2367 66.0481 34.578 66.6777 33.5429C68.1888 31.0482 70.1306 32.561 71.9598 36.5287C71.9598 36.5287 71.9731 36.5287 71.993 36.5154C72.1255 36.4491 75.4591 34.4652 75.5784 34.3856" fill="#DE2426"/>
<path d="M160.702 15.1244C157.276 15.0448 153.491 15.3633 150.96 18.0505C149.521 20.7841 146.672 31.0086 146.672 31.0086C145.803 29.7678 138.865 28.1887 134.875 33.5232C134.862 33.5365 134.855 33.563 134.842 33.583C134.325 34.6246 131.395 46.2823 131.356 46.3022C130.395 46.9923 127.757 47.9809 127.366 47.9477C126.783 47.6823 126.471 47.2311 126.557 46.5743C129.162 37.6834 130.951 28.5934 133.874 19.822C134.968 17.5993 137.387 16.6239 139.686 16.3519L139.6 15.1443C136.18 15.0647 132.396 15.3832 129.858 18.0704C127.962 21.1954 121.646 47.2842 121.646 47.2842C121.335 49.4538 123.628 51.8026 125.185 51.6367C127.445 50.6614 129.48 49.3012 131.588 48.0472C132.29 48.9894 133.41 50.2301 134.345 50.8936C137.068 52.8509 142.43 49.3609 142.463 49.4074C143.219 50.5884 144.392 51.8557 146.426 51.4841C147.971 50.9799 154.008 47.0254 154.008 47.0254L153.2 45.7051C153.2 45.7051 150.005 47.742 148.169 47.9344C148.169 47.9344 147.076 47.8614 147.401 46.5942C147.368 46.6273 154.956 19.8552 154.956 19.822C156.05 17.5993 158.462 16.6239 160.768 16.3519M145.658 35.1554L142.993 44.8027C142.854 45.38 142.556 45.6122 142.344 45.8311C139.149 48.4188 135.392 49.4605 136.73 43.9402C136.73 43.9402 139.024 34.9763 139.415 34.3592C141.456 31.6986 145.943 31.3602 145.658 35.1621" fill="#DE2426"/>
<path d="M122.157 30.6173C120.58 29.0647 117.147 29.9471 114.966 30.4912C112.653 31.221 110.088 32.0239 108.995 34.6712C108.12 37.7366 106.642 43.4029 105.827 47.1251C105.794 48.1336 109.061 51.4113 111.474 51.6037C112.196 51.8757 119.678 47.0189 119.678 47.0189L118.876 45.672C118.876 45.672 115.834 47.6161 113.992 47.8483C113.906 47.8616 113.813 47.8483 113.813 47.8483C112.739 47.6891 111.407 46.873 111.029 45.9308C110.89 45.6322 111.951 41.8237 111.951 41.8237C111.951 41.8237 119.148 42.1621 121.295 39.4352C122.853 36.894 123.933 32.6144 122.15 30.6106M118.161 36.6883C117.113 39.7138 113.376 39.3157 112.779 39.2228C112.673 39.1764 112.713 39.0039 112.713 39.0039L113.661 35.3745C114.244 33.3044 116.769 32.0902 117.823 32.3755C119.559 33.0656 118.161 36.6883 118.161 36.6883Z" fill="#DE2426"/>
<path d="M59.0857 30.6173C57.5084 29.0647 54.0754 29.9471 51.8949 30.4912C49.5819 31.221 47.0237 32.0239 45.9302 34.6712C45.0488 37.7366 43.5775 43.4029 42.7689 47.1251C42.7291 48.1336 45.9965 51.4113 48.4089 51.6037C49.1379 51.8758 56.6137 47.0189 56.6137 47.0189L55.8184 45.672C55.8184 45.672 52.7764 47.6161 50.9273 47.8483C50.8412 47.8616 50.7417 47.8483 50.7417 47.8483C49.6747 47.6891 48.3426 46.873 47.9648 45.9308C47.819 45.6322 48.8794 41.8237 48.8794 41.8237C48.8794 41.8237 56.0835 42.1621 58.2241 39.4352C59.7816 36.894 60.8685 32.6144 59.0791 30.6106M55.0894 36.6883C54.0422 39.7138 50.3043 39.3157 49.7079 39.2228C49.6084 39.1764 49.6416 39.0039 49.6416 39.0039L50.5893 35.3745C51.1792 33.3044 53.6976 32.0902 54.7514 32.3755C56.4944 33.0656 55.0894 36.6883 55.0894 36.6883Z" fill="#DE2426"/>
</svg>
