<svg width="76" height="69" viewBox="0 0 76 69" fill="none" xmlns="http://www.w3.org/2000/svg">
<path d="M71.3336 23.5942L66.1352 7.86217C65.3811 5.57168 63.9306 3.57918 61.9898 2.16778C60.0491 0.756378 57.7167 -0.00213979 55.3242 4.53397e-06H20.6758C18.2833 -0.00213979 15.9509 0.756378 14.0102 2.16778C12.0694 3.57918 10.6189 5.57168 9.8648 7.86217L4.6664 23.5942C3.28405 24.1777 2.10353 25.1604 1.27325 26.4187C0.442978 27.6771 -1.82742e-06 29.155 0 30.6667V49.8333C0 52.6623 1.5352 55.108 3.8 56.4382V65.1667C3.8 66.1833 4.20036 67.1584 4.91299 67.8773C5.62563 68.5961 6.59218 69 7.6 69H11.4C12.4078 69 13.3744 68.5961 14.087 67.8773C14.7996 67.1584 15.2 66.1833 15.2 65.1667V57.5H60.8V65.1667C60.8 66.1833 61.2004 67.1584 61.913 67.8773C62.6256 68.5961 63.5922 69 64.6 69H68.4C69.4078 69 70.3744 68.5961 71.087 67.8773C71.7997 67.1584 72.2 66.1833 72.2 65.1667V56.4382C73.3529 55.7712 74.3112 54.8095 74.9783 53.65C75.6454 52.4904 75.9978 51.174 76 49.8333V30.6667C76 29.155 75.557 27.6771 74.7267 26.4187C73.8965 25.1604 72.716 24.1777 71.3336 23.5942ZM20.6758 7.66667H55.3204C56.9582 7.66667 58.4098 8.717 58.9266 10.2887L63.1294 23H12.8706L17.0696 10.2887C17.3217 9.52505 17.8057 8.86085 18.453 8.39024C19.1002 7.91963 19.8779 7.66648 20.6758 7.66667ZM13.3 46C12.5512 45.9997 11.8098 45.8507 11.1181 45.5614C10.4264 45.2721 9.798 44.8482 9.2687 44.3139C8.73941 43.7797 8.31962 43.1454 8.0333 42.4475C7.74699 41.7495 7.59975 41.0015 7.6 40.2462C7.60025 39.4908 7.74798 38.7429 8.03476 38.0452C8.32154 37.3474 8.74174 36.7134 9.27139 36.1795C9.80104 35.6456 10.4298 35.2221 11.1216 34.9333C11.8135 34.6444 12.555 34.4959 13.3038 34.4962C14.816 34.4967 16.2661 35.1032 17.3351 36.1822C18.4041 37.2613 19.0043 38.7245 19.0038 40.25C19.0033 41.7755 18.4021 43.2383 17.3324 44.3167C16.2627 45.395 14.8122 46.0005 13.3 46ZM62.7 46C61.9512 45.9997 61.2098 45.8507 60.5181 45.5614C59.8264 45.2721 59.198 44.8482 58.6687 44.3139C58.1394 43.7797 57.7196 43.1454 57.4333 42.4475C57.147 41.7495 56.9998 41.0015 57 40.2462C57.0003 39.4908 57.148 38.7429 57.4348 38.0452C57.7215 37.3474 58.1418 36.7134 58.6714 36.1795C59.201 35.6456 59.8298 35.2221 60.5216 34.9333C61.2135 34.6444 61.955 34.4959 62.7038 34.4962C64.216 34.4967 65.6661 35.1032 66.7351 36.1822C67.8041 37.2613 68.4043 38.7245 68.4038 40.25C68.4033 41.7755 67.8021 43.2383 66.7324 44.3167C65.6627 45.395 64.2122 46.0005 62.7 46Z" fill="#5F1A44"/>
</svg>
