<svg width="74" height="74" viewBox="0 0 74 74" fill="none" xmlns="http://www.w3.org/2000/svg">
<path d="M54.3901 0H19.6098C15.7618 0 12.6312 3.11884 12.6312 6.95224V67.0346C12.6312 70.8754 15.7558 74 19.5966 74H54.4034C58.2441 74 61.3688 70.8754 61.3688 67.0346V6.95224C61.3686 3.11884 58.2381 0 54.3901 0ZM15.5219 6.95224C15.5219 4.71259 17.3557 2.89062 19.6098 2.89062H54.3902C56.6443 2.89062 58.4781 4.71259 58.4781 6.95224V59.5712H15.5219V6.95224ZM58.478 67.0346C58.478 69.2813 56.6501 71.1094 54.4032 71.1094H19.5965C17.3497 71.1094 15.5217 69.2815 15.5217 67.0346V62.4618H58.478V67.0346Z" fill="#5F1A44"/>
<path d="M36.0363 68.2309H37.9633C38.7615 68.2309 39.4086 67.5838 39.4086 66.7856C39.4086 65.9873 38.7615 65.3403 37.9633 65.3403H36.0363C35.238 65.3403 34.5909 65.9873 34.5909 66.7856C34.5909 67.5838 35.2382 68.2309 36.0363 68.2309Z" fill="#5F1A44"/>
<path d="M30.1364 8.60736H43.8638C44.662 8.60736 45.3091 7.96029 45.3091 7.16205C45.3091 6.3638 44.662 5.71674 43.8638 5.71674H30.1364C29.3381 5.71674 28.691 6.3638 28.691 7.16205C28.691 7.96029 29.3381 8.60736 30.1364 8.60736Z" fill="#5F1A44"/>
<path d="M42.1968 29.7175L42.7066 29.2078C43.1645 28.7499 43.1645 28.006 42.7066 27.5481L34.2192 19.0608C33.7613 18.6049 33.0174 18.6028 32.5595 19.0608L19.7249 31.8974C19.267 32.3553 19.267 33.0992 19.7249 33.5571L28.2122 42.0445C28.6287 42.4609 29.2814 42.4941 29.7414 42.1522V31.7275C29.7414 30.621 30.6428 29.7196 31.7493 29.7196H42.1968V29.7175ZM35.7339 23.7914L37.9967 26.052L34.6047 29.444L32.3419 27.1834L35.7339 23.7914Z" fill="#5F1A44"/>
<path d="M52.0558 31.1078H33.9042C32.4911 31.1078 31.3411 32.2579 31.3411 33.671V45.6726C31.3411 47.0858 32.4911 48.2358 33.9042 48.2358H52.0558C53.4731 48.2358 54.619 47.0837 54.619 45.6726V33.671C54.619 32.2579 53.4711 31.1078 52.0558 31.1078ZM53.5084 45.6747C53.5084 46.4745 52.8577 47.1252 52.0558 47.1252H33.9042C33.1044 47.1252 32.4538 46.4745 32.4538 45.6747V39.6739H53.5104L53.5084 45.6747ZM53.5084 36.7895H32.4517V33.6731C32.4517 32.8733 33.1023 32.2206 33.9022 32.2206H52.0538C52.8557 32.2206 53.5063 32.8712 53.5063 33.6731L53.5084 36.7895Z" fill="#5F1A44"/>
</svg>
